<svg width="261" height="80" viewBox="0 0 261 80" fill="none" xmlns="http://www.w3.org/2000/svg">
<rect x="15" y="8" width="231" height="58" fill="#EFEEEC"/>
<path d="M232.184 29.3394L228.44 25.5974H219.374V39.9995H228.425L232.183 36.2426L232.184 29.3394Z" fill="#A83021"/>
<path d="M179.022 25.5964L174.701 40.0003H183.806L179.489 25.5964H179.022Z" fill="#A83021"/>
<path d="M0 0V80H260.996V0H0ZM36.8208 60.8083H19.204V54.4139H24.0062V25.6036H19.204V19.2014H32.0143V54.4139H36.8164L36.8208 60.8083ZM52.8381 38.4062L44.8562 46.4105H35.2213V40.0074H41.0699L44.8316 36.2479V29.3473L41.0839 25.6036H35.2213V19.2014H44.8308V19.1874L44.8448 19.2014H44.8685L52.8363 27.1864L52.8381 38.4062ZM73.6521 25.5957H68.7738V54.4026H73.6521V60.8083H56.0354V54.4061H60.7682V25.5957H56.0354V19.1935H73.6521V25.5957ZM120.091 25.5957H115.286V54.4026H120.091V60.8083H107.281V60.7566L91.2672 33.0508V54.4069H96.0702V60.8083H78.4534V54.4061H83.2581V25.5957H78.4534V19.1935H91.2645L107.278 46.8984V25.5957H102.474V19.1935H120.09L120.091 25.5957ZM145.714 25.5957V54.4034H150.517V60.8083H132.901V54.4078H137.705V25.5957H131.299V31.9979H124.893V19.1944H158.522V31.9979H152.117V25.5957H145.714ZM201.759 60.8083H184.143V54.4061H188.125L185.725 46.4035H172.779L170.379 54.4061H174.534V60.8083H156.917V54.4061H162.371L171.012 25.5992H166.528V19.197H192.151V25.5957H187.492L196.133 54.4026H201.759L201.759 60.8083ZM241.793 60.8083H232.185V60.7802L224.157 46.4053H219.374V54.4069H224.178V60.8083H206.562V54.4061H211.366V25.5957H206.562V19.1944H232.184V19.1795L232.199 19.1944H232.222L240.19 27.1785V38.3966L232.208 46.4009H232.161L236.631 54.4017H241.792L241.793 60.8083Z" fill="#A83021"/>
</svg>
